<?xml version="1.0" encoding="UTF-8"?>
<!DOCTYPE svg PUBLIC "-//W3C//DTD SVG 1.1//EN" "http://www.w3.org/Graphics/SVG/1.1/DTD/svg11.dtd">
<!-- Creator: CorelDRAW X8 -->
<svg xmlns="http://www.w3.org/2000/svg" xml:space="preserve" width="152.047mm" height="180.303mm" version="1.1" style="shape-rendering:geometricPrecision; text-rendering:geometricPrecision; image-rendering:optimizeQuality; fill-rule:evenodd; clip-rule:evenodd"
viewBox="0 0 70560 83673"
 xmlns:xlink="http://www.w3.org/1999/xlink">
 <defs>
  <style type="text/css">
   <![CDATA[
    .fil0 {fill:#ED4222}
    .fil1 {fill:red}
    .fil2 {fill:#FF7F00}
   ]]>
  </style>
 </defs>
 <g id="Layer_x0020_1">
  <metadata id="CorelCorpID_0Corel-Layer"/>
  <g id="_1537517823648">
   <path class="fil0" d="M30614 28650l0 -164 191 136 -191 28zm3275 -22101l-164 159c-259,1125 -1522,2873 -2131,3770l-161 161c-175,264 -542,771 -775,1028 -358,394 -568,499 -862,939l-164 166 -1309 1307 -162 163 -166 166c-602,400 -952,957 -1516,1430 -365,307 -441,276 -819,654 -329,328 -409,453 -777,698l-162 164 -1308 1146 -166 162 -2294 2130 -159 162 -166 166 -1799 1800 -165 164 -164 164c-488,726 -1188,1125 -1736,1865 -557,752 -1208,1329 -1704,2063l-162 161c-401,605 -886,1173 -1311,1804l-163 163c-349,523 -696,995 -1036,1584 -364,633 -706,1109 -1039,1743 -505,960 -1447,2696 -1693,3713l-161 159c-286,1247 -1116,2878 -1145,4262l-164 162c0,1144 -335,1937 -328,3275 6,1258 0,2518 0,3776l164 154c-1,1142 309,2043 556,3045 153,616 225,891 426,1375 159,386 393,888 491,1305l165 168c110,478 212,632 457,1016 237,370 331,583 524,949l164 164c191,361 278,499 491,822l163 160 328 492 162 163 657 820 164 162 1473 1475 163 162c384,257 440,407 789,685 260,207 597,452 847,627 555,389 1189,823 1803,1141l161 166c1168,613 2244,1160 3553,1689l3980 1258c-201,-555 -1068,-651 -2620,-1799 -340,-252 -476,-428 -818,-654l-162 -166 -820 -820 -167 -162 -652 -818 -162 -165c-634,-940 -1933,-2972 -1966,-4410l-160 -174c-15,-1856 -57,-2947 320,-4423 337,-1319 904,-2349 1477,-3435l164 -161c356,-679 744,-1046 1149,-1640l161 -163c502,-750 2390,-2480 3274,-2947 -791,3395 413,5913 3436,6387 1563,244 1591,-13 2948,-330l164 -163c365,-194 493,-274 818,-492l165 -162c25,-29 64,-114 75,-89 11,26 62,-69 77,-87 1440,-1704 1364,-4105 111,-5983 -713,-1068 -891,-1005 -1246,-1538l-167 -163c-1091,-1661 -3955,-3975 -3015,-8257 182,-825 342,-1129 671,-1785 846,-1683 626,-1053 1365,-2073 276,-381 255,-386 655,-654 0,1368 100,2091 596,3005 454,836 935,1392 1573,2029l1921 1681c668,470 1566,1093 2295,1465l164 169c954,505 1829,1136 2783,1636l164 165c1240,656 2457,1518 3601,2294l163 162c553,368 852,630 1409,1047 1343,1006 2890,2618 3831,4029l165 162c407,613 806,1281 1146,1964 261,526 760,1606 817,2294l158 163c32,866 325,1524 340,2449 18,1140 -176,1659 -166,2626l-168 165 3 490 -167 168c-71,848 -793,2118 -1148,2778l-162 167c-1393,2607 -4497,4550 -7161,5769 -655,301 -310,-104 -533,449l4425 -1309 159 -168c1058,-234 1787,-910 2783,-1142l164 -163c904,-481 1642,-822 2522,-1408 453,-301 743,-470 1178,-787 439,-319 806,-644 1210,-916l165 -162 980 -821 166 -162 1636 -1639 165 -163c272,-407 520,-573 819,-981 289,-394 539,-732 819,-1148l162 -163c230,-434 425,-712 657,-1146l162 -163c261,-496 685,-1230 819,-1802l163 -168c217,-917 918,-2298 1130,-3941 626,-4850 -10,-8273 -2276,-12592l-162 -161c-834,-1566 -3374,-4813 -4749,-5729l-166 -165c-363,-245 -369,-334 -695,-612l-4181 -2859c-605,-379 -1223,-626 -1834,-949 90,385 153,482 164,980l160 166c-280,1252 -876,2167 -1798,2783l-163 163c-1244,660 -1743,650 -3602,657l-160 -165c-614,-51 -868,-255 -1313,-492l-163 -163c-657,-438 -880,-831 -1311,-1473l-160 -164c-183,-338 -230,-386 -331,-816l-163 -166 -1 -327 -164 -165c-15,-727 -158,-660 -169,-1467 -9,-597 7,-1207 3,-1807l167 -173c0,-929 263,-1166 326,-1955l165 -166c41,-496 337,-1384 470,-1819 200,-653 348,-1283 514,-1943 367,-1455 326,-2608 326,-4424l-167 -161c8,-1086 -280,-1729 -488,-2617l-165 -166c-211,-919 -1070,-2595 -1569,-3341l-2195 -2882 -162 -162 -821 -817 -164 -168 -162 -161c-593,-395 -838,-932 -1638,-1146 496,937 820,1662 821,3109 0,1760 -354,2139 -657,3440z"/>
   <path class="fil0" d="M36672 82184c-1001,0 -1110,-29 -1801,-491 0,-1055 -26,-865 491,-1637 392,188 973,252 1474,327 596,89 938,203 1473,327 0,937 -256,1474 -1637,1474zm0 -5235l-162 -168 -321 -177c-19,-2181 1136,-2338 2447,-1460 0,1613 -385,1791 -1964,1805zm-2456 -167l163 163 184 648c-817,1149 -543,373 -511,1808 -1550,1038 -2417,4474 2953,4262 735,-28 568,-153 1303,-169l165 -168c332,-74 309,-48 598,-216 14,-9 285,-206 285,-206 310,-243 108,-95 262,-229l164 -166c467,-877 589,-1167 328,-2291l-164 -162c-350,-478 -103,-202 -655,-489l-162 -166 -329 3 -164 -167c-1064,-24 -2096,-469 -3110,-491l0 -328c2479,0 1486,164 3603,-327l162 -162c424,-287 831,-583 983,-1148l163 -161 6 -657 158 -173c-37,-437 -77,-438 -164,-810 455,219 317,164 982,164l167 -655 161 -163 183 -649 -1822 -6 -162 160 -328 4 -159 -164 -168 0 -163 -164c-1341,-312 -2625,-272 -3605,325 -988,601 -1307,1366 -1307,2950z"/>
   <path class="fil0" d="M19643 77109l-161 155c0,874 -148,925 -164,1646 -900,209 -1509,675 -2292,1l-163 -165c-276,-1176 55,-1604 168,-2783l159 -166c272,-1160 757,-1146 2128,-1143l170 163 321 0c0,1050 -161,1348 -166,2292zm821 -5897c0,866 -263,1522 -327,2295 -1319,-307 -2192,-434 -3438,164l-164 159c-656,450 -1061,1084 -1338,1941 -194,601 -428,2004 -271,2947 317,1906 2206,2340 4390,1829l166 0c78,939 415,655 1473,655 191,-817 330,-2022 453,-2822 148,-970 368,-2126 364,-3072l166 -165c0,-1428 491,-2738 491,-4092l-1805 0 -160 161z"/>
   <path class="fil0" d="M2294 71379l-166 165c-1533,1018 -2060,2784 -2128,5228l0 1026c66,1153 611,2044 1412,2483 1320,724 2185,388 3666,266l161 -160c859,-210 2045,-1132 2128,-2132 -501,-134 -766,-401 -1146,-655l-655 655 -163 163c-461,309 -352,443 -1037,601 -482,111 -1231,124 -1649,-43 -834,-335 -926,-1394 -910,-2522l158 -159 4 -987 159 -170 -2 -485 166 -161 164 -658 163 -165 166 -326 162 -162 164 -165 163 -161c347,-187 1105,-506 1626,-486 62,2 831,182 923,227 311,151 404,348 562,583l168 164 -5 1146 1474 0c0,-660 -26,-1177 -156,-1645 -161,-584 -265,-681 -663,-1136l-164 -165c-379,-255 -531,-440 -1145,-492l-164 -163c-1530,0 -2400,-11 -3436,491z"/>
   <path class="fil0" d="M26030 74817l491 0c481,717 492,152 492,1473l-2620 0c356,-672 595,-1473 1637,-1473zm-1146 -1477c-1614,150 -2634,1957 -2614,3769l-169 173c0,1480 264,2429 1205,3042 492,321 986,389 1740,392 1170,5 1113,-135 1968,-333l162 -160c333,-180 414,-153 702,-448 435,-445 103,-332 608,-702l-164 -328 -159 -163c-514,-118 -476,-208 -987,-327 -712,477 -1422,1621 -3110,491l0 -982 4747 0c0,-1451 438,-2331 -388,-3542 -787,-1153 -1578,-1042 -3379,-1042l-162 160z"/>
   <path class="fil0" d="M61559 74980l161 -163 982 0c351,524 491,564 491,1473l-2619 0c164,-704 463,-964 985,-1310zm-2950 983l-164 164c0,884 -290,1248 -133,2261 113,722 244,1023 633,1494l155 170 164 167c1105,585 1334,491 2948,491l163 -168c698,-50 1493,-555 1797,-978l167 -161 161 -330 167 -164c-406,-351 -939,-596 -1638,-654 -115,480 22,236 -330,491l-161 166c-1032,485 -1415,421 -2292,-166l0 -982 4748 0c0,-1093 131,-2387 -221,-3218 -333,-785 -1080,-1301 -2068,-1369 -2235,-154 -3940,932 -4096,2786z"/>
   <path class="fil0" d="M43875 74000l-160 -166c-34,-21 -82,-97 -102,-63l-544 -113c-285,-14 -693,13 -995,13 0,1318 -322,2120 -330,3438l-161 167c0,1443 -384,2635 -491,3926l1964 0c0,-1396 655,-4030 655,-5567 4184,-2801 1801,2291 1801,5567l1802 0 163 -170c0,-1315 322,-2116 329,-3432l162 -170c0,-1668 520,-2760 -607,-3808 -1146,-1065 -2658,-182 -3486,378z"/>
   <path class="fil0" d="M12610 77600l-168 166 0 325 -164 165 0 162 -163 166 -327 326 -164 168c-3330,731 -1546,-3748 -1020,-4135 436,-322 2179,-1041 2163,1838l-161 168 4 651zm-3770 2622l162 161c840,400 1984,456 2990,205 559,-140 750,-276 1110,-528 557,-391 497,-397 818,-987l159 -163c225,-964 336,-397 498,-2125 247,-2633 -928,-4212 -4009,-3515 -1592,360 -2132,1306 -2517,2722 -354,1305 -504,3351 789,4230z"/>
   <path class="fil0" d="M53701 77764l-167 155c0,1379 -160,2166 832,2614 423,192 1002,209 1630,185 727,-28 868,-196 1470,-335l161 -166c219,-121 186,-81 491,-161 -200,-857 -413,-705 -819,-1310 -445,236 -837,439 -1473,490l-167 -163c-402,-647 169,-3236 331,-3929l1964 0c124,-219 90,-182 166,-491l162 -162c100,-433 148,-482 327,-820l-2455 0c85,-1032 327,-1693 327,-2947 -546,127 -1508,436 -1965,655 0,2892 -543,2292 -1309,2292 -53,631 -164,644 -164,1473l1146 0c-297,561 -248,372 -334,1139 -73,648 -160,676 -154,1481z"/>
   <path class="fil0" d="M32906 79728l-150 -164c-108,0 -396,11 -493,-11 -334,-77 -153,-11 -342,-152l167 -168c0,-1713 659,-3361 653,-5071l165 -166 0 -816 983 0c145,-625 163,-651 163,-1474l-3765 0c-53,632 -164,645 -164,1474l982 0c-180,375 -982,5617 -982,6384 -1499,0 -1146,87 -1146,1638l3766 0c0,-823 147,-734 163,-1474z"/>
   <path class="fil0" d="M68102 73834l-165 0c-427,-275 -1015,-163 -1633,-163 0,1516 -845,5875 -983,7531l1965 0c0,-1088 323,-1881 330,-3111l161 -154c0,-940 150,-1866 328,-2629 1019,-238 896,-328 2291,-328 56,-670 164,-891 164,-1800 -1563,0 -1508,25 -2458,654z"/>
   <path class="fil0" d="M49934 76290l-165 162c0,867 -186,1642 -294,2329 -166,1058 33,1699 621,2094l163 163c672,56 892,164 1802,164 0,-829 111,-842 163,-1474l-150 -164 -669 0c1,-810 627,-5492 819,-5893l-3110 0c-17,740 -164,650 -164,1473l1146 0c-232,485 -164,457 -162,1146z"/>
   <path class="fil0" d="M50260 73180c2474,0 2021,146 2149,-962 60,-520 143,-582 143,-1330 -536,257 -1040,163 -1801,163l-90 -352c-203,579 -401,1834 -401,2481z"/>
   <polygon class="fil1" points="23413,18500 23247,18662 "/>
   <polygon class="fil1" points="39946,19807 39781,19973 "/>
   <polygon class="fil1" points="20953,20792 20794,20954 "/>
   <polygon class="fil2" points="20794,20954 20628,21120 "/>
   <polygon class="fil2" points="39455,21928 39288,22101 "/>
   <polygon class="fil2" points="18829,22920 18664,23084 "/>
   <polygon class="fil1" points="18664,23084 18500,23248 "/>
   <polygon class="fil1" points="39618,25540 39454,25375 "/>
   <polygon class="fil2" points="48783,25703 48623,25537 "/>
   <polygon class="fil1" points="39782,26033 39619,25867 "/>
   <polygon class="fil1" points="40273,27013 40113,26849 "/>
   <polygon class="fil1" points="15060,27176 14898,27337 "/>
   <polygon class="fil1" points="41747,28649 41584,28486 "/>
   <polygon class="fil1" points="46985,28486 46822,28649 "/>
   <polygon class="fil2" points="55335,29142 55169,28977 "/>
   <polygon class="fil2" points="13587,29141 13424,29304 "/>
   <polygon class="fil1" points="43220,29306 43060,29141 "/>
   <polygon class="fil1" points="60246,35032 60084,34871 "/>
   <polygon class="fil2" points="9656,36344 9495,36503 "/>
   <polygon class="fil1" points="37163,36999 36999,36830 "/>
   <polygon class="fil2" points="40110,38800 39946,38635 "/>
   <polygon class="fil1" points="8350,40765 8186,40927 "/>
   <polygon class="fil1" points="43874,41256 43711,41094 "/>
   <polygon class="fil1" points="31105,41582 30938,41419 "/>
   <polygon class="fil1" points="49279,46494 49114,46332 "/>
   <polygon class="fil1" points="21283,46986 21122,47149 "/>
   <polygon class="fil1" points="8022,48132 7858,47978 "/>
   <polygon class="fil1" points="19973,48789 19809,48950 "/>
   <polygon class="fil2" points="32088,49279 31923,49441 "/>
   <polygon class="fil2" points="31105,49933 30941,50096 "/>
   <polygon class="fil2" points="51400,50915 51242,50752 "/>
   <polygon class="fil2" points="61392,51565 61229,51733 "/>
   <polygon class="fil1" points="60410,53535 60248,53698 "/>
   <polygon class="fil2" points="9660,54025 9495,53857 "/>
   <polygon class="fil1" points="59591,54844 59429,55007 "/>
   <polygon class="fil1" points="10805,56154 10641,55990 "/>
   <polygon class="fil2" points="51574,55990 51406,56155 "/>
   <polygon class="fil1" points="51409,56645 51242,56813 "/>
   <polygon class="fil2" points="18172,56982 18012,56808 "/>
   <polygon class="fil1" points="11459,57136 11296,56976 "/>
   <polygon class="fil1" points="57791,57136 57626,57299 "/>
   <polygon class="fil1" points="11949,57791 11787,57628 "/>
   <polygon class="fil1" points="12770,58773 12606,58611 "/>
   <polygon class="fil2" points="55990,58938 55824,59100 "/>
   <polygon class="fil1" points="50094,59591 49932,59758 "/>
   <polygon class="fil2" points="54844,59921 54679,60083 "/>
   <polygon class="fil1" points="14406,60410 14243,60248 "/>
   <polygon class="fil2" points="20300,61557 20138,61392 "/>
   <polygon class="fil1" points="21119,62537 20952,62375 "/>
   <polygon class="fil2" points="18006,63029 17845,62863 "/>
   <polygon class="fil1" points="49769,63194 49605,63357 "/>
   <polygon class="fil2" points="22101,63523 21939,63357 "/>
   <polygon class="fil1" points="46822,64499 46663,64667 "/>
   <polygon class="fil2" points="5894,71051 5730,70888 "/>
   <polygon class="fil1" points="20624,71051 20464,71212 "/>
   <polygon class="fil2" points="2294,71379 2128,71544 "/>
   <polygon class="fil2" points="7203,71708 7039,71543 "/>
   <polygon class="fil1" points="3274,72855 3111,73016 "/>
   <polygon class="fil1" points="2947,73181 2785,73343 "/>
   <polygon class="fil2" points="6553,73343 6385,73179 "/>
   <polygon class="fil1" points="25046,73180 24884,73340 "/>
   <polygon class="fil1" points="39291,73671 39128,73507 "/>
   <polygon class="fil1" points="2619,73669 2456,73834 "/>
   <polygon class="fil2" points="16699,73671 16535,73830 "/>
   <polygon class="fil1" points="39618,73835 39459,73671 "/>
   <polygon class="fil1" points="40108,73671 39946,73831 "/>
   <polygon class="fil1" points="43875,74000 43715,73834 "/>
   <polygon class="fil1" points="68102,73834 67937,73834 "/>
   <polygon class="fil2" points="32906,73996 32741,74162 "/>
   <polygon class="fil1" points="35525,1307 35363,1146 "/>
   <polygon class="fil2" points="41747,74326 41586,74489 "/>
   <polygon class="fil1" points="2292,74492 2126,74653 "/>
   <polygon class="fil1" points="58282,74491 58120,74653 "/>
   <polygon class="fil2" points="19488,74817 19318,74654 "/>
   <polygon class="fil2" points="35689,1475 35525,1307 "/>
   <polygon class="fil1" points="61720,74817 61559,74980 "/>
   <polygon class="fil2" points="2128,75138 1969,75308 "/>
   <polygon class="fil2" points="21938,75143 21772,75308 "/>
   <polygon class="fil2" points="17190,75797 17031,75963 "/>
   <polygon class="fil2" points="40601,75790 40443,75963 "/>
   <polygon class="fil2" points="58609,75963 58445,76127 "/>
   <polygon class="fil2" points="1965,76295 1807,76454 "/>
   <polygon class="fil2" points="49934,76290 49769,76452 "/>
   <polygon class="fil1" points="40437,76620 40274,76781 "/>
   <polygon class="fil1" points="12767,76781 12606,76949 "/>
   <polygon class="fil2" points="34379,76945 34216,76782 "/>
   <polygon class="fil2" points="36672,76949 36510,76781 "/>
   <polygon class="fil1" points="19643,77109 19482,77264 "/>
   <polygon class="fil1" points="22270,77109 22101,77282 "/>
   <polygon class="fil1" points="41744,77109 41583,77276 "/>
   <polygon class="fil2" points="47968,77430 47806,77600 "/>
   <polygon class="fil1" points="12610,77600 12442,77766 "/>
   <polygon class="fil1" points="53701,77764 53534,77919 "/>
   <polygon class="fil1" points="39291,77929 39129,78091 "/>
   <polygon class="fil1" points="67777,77937 67616,78091 "/>
   <polygon class="fil2" points="12442,78091 12278,78256 "/>
   <polygon class="fil1" points="5566,78255 5403,78418 "/>
   <polygon class="fil2" points="12278,78418 12115,78584 "/>
   <polygon class="fil1" points="28322,78745 28163,78582 "/>
   <polygon class="fil2" points="17026,78911 16863,78746 "/>
   <polygon class="fil1" points="62699,78746 62538,78912 "/>
   <polygon class="fil2" points="11788,78910 11624,79078 "/>
   <polygon class="fil2" points="14079,78910 13920,79073 "/>
   <polygon class="fil2" points="64667,78909 64500,79073 "/>
   <polygon class="fil2" points="55826,79236 55659,79073 "/>
   <polygon class="fil1" points="32088,79233 31921,79401 "/>
   <polygon class="fil2" points="38800,79404 38636,79237 "/>
   <polygon class="fil1" points="39291,79567 39129,79401 "/>
   <polygon class="fil1" points="64339,79403 64172,79564 "/>
   <polygon class="fil1" points="32906,79728 32756,79564 "/>
   <polygon class="fil1" points="52224,79728 52074,79564 "/>
   <polygon class="fil2" points="40110,80218 39946,80056 "/>
   <polygon class="fil1" points="59264,80219 59100,80052 "/>
   <polygon class="fil1" points="9002,80383 8840,80222 "/>
   <polygon class="fil1" points="27176,80223 27014,80383 "/>
   <polygon class="fil1" points="57627,80217 57466,80383 "/>
   <polygon class="fil1" points="5239,80387 5078,80547 "/>
   <polygon class="fil1" points="36672,2454 36510,2292 "/>
   <polygon class="fil1" points="19482,80547 19316,80547 "/>
   <polygon class="fil1" points="33889,6549 33725,6708 "/>
   <polygon class="fil2" points="40601,8843 40436,8677 "/>
   <polygon class="fil1" points="31594,10478 31433,10639 "/>
   <polygon class="fil2" points="62375,80542 62212,80710 "/>
   <polygon class="fil2" points="41256,11621 41089,11460 "/>
   <polygon class="fil2" points="29796,12606 29632,12772 "/>
   <polygon class="fil1" points="28323,14079 28161,14242 "/>
   <polygon class="fil1" points="50259,81038 50096,80875 "/>
   <polygon class="fil2" points="28161,14242 27995,14408 "/>
   <polygon class="fil1" points="24883,17190 24721,17354 "/>
   <polygon class="fil2" points="47477,81032 47314,81202 "/>
   <polygon class="fil2" points="39782,82509 39618,82675 "/>
   <polygon class="fil1" points="38473,83326 38308,83494 "/>
  </g>
 </g>
</svg>
